<?xml version="1.0" standalone="no"?>
<!DOCTYPE svg PUBLIC "-//W3C//DTD SVG 20010904//EN"
 "http://www.w3.org/TR/2001/REC-SVG-20010904/DTD/svg10.dtd">
<svg version="1.0" xmlns="http://www.w3.org/2000/svg"
 width="700.000000pt" height="700.000000pt" viewBox="0 0 700.000000 700.000000"
 preserveAspectRatio="xMidYMid meet">
<metadata>
Created by potrace 1.14, written by Peter Selinger 2001-2017
</metadata>
<g transform="translate(0.000000,700.000000) scale(0.100000,-0.100000)"
fill="#000000" stroke="none">
<path d="M5370 6971 c-103 -34 -195 -79 -275 -136 -132 -94 -263 -265 -326
-428 -31 -81 -76 -255 -81 -317 l-3 -35 208 -24 c225 -27 226 -26 227 25 0 37
49 194 84 268 115 248 344 380 626 363 178 -11 299 -66 426 -192 65 -65 90
-98 122 -166 68 -141 79 -286 31 -416 -44 -118 -104 -189 -352 -416 -309 -282
-398 -405 -458 -632 -23 -87 -41 -266 -37 -365 l3 -75 196 -3 196 -2 7 31 c3
17 6 60 6 95 0 88 18 208 42 279 33 101 84 170 211 294 438 422 487 477 558
626 59 122 80 218 81 360 0 137 -22 252 -71 359 -106 234 -331 426 -599 510
-82 26 -85 26 -410 26 l-327 -1 -85 -28z"/>
<path d="M5540 3825 l0 -235 235 0 235 0 0 235 0 235 -235 0 -235 0 0 -235z"/>
<path d="M2813 3846 c-138 -45 -236 -157 -262 -301 -29 -158 57 -323 207 -397
61 -30 74 -33 162 -33 88 0 101 3 162 33 136 67 211 187 211 337 0 104 -27
176 -94 250 -73 79 -156 118 -262 122 -51 2 -98 -2 -124 -11z"/>
<path d="M5452 3237 l-242 -242 85 -85 85 -85 94 94 95 94 3 -284 c3 -283 3
-285 29 -334 35 -68 90 -108 181 -130 162 -39 278 -131 346 -272 36 -77 37
-80 37 -198 0 -142 -18 -199 -93 -298 -140 -183 -393 -238 -604 -131 -67 34
-168 135 -202 202 -15 29 -35 87 -46 128 -26 107 -65 158 -145 195 -37 17 -73
19 -432 19 l-393 0 0 -120 0 -120 363 0 363 0 23 -78 c35 -123 91 -215 190
-312 95 -94 174 -142 301 -182 64 -19 96 -23 210 -23 121 1 143 4 215 29 243
84 424 280 481 521 23 99 21 250 -5 348 -64 245 -257 442 -501 513 l-75 22 -3
251 c-1 138 1 251 5 251 4 0 48 -41 98 -90 l90 -90 85 85 85 85 -240 240 -240
240 -243 -243z"/>
<path d="M2143 3186 c-23 -7 -56 -23 -75 -34 -18 -11 -171 -159 -339 -329
-348 -350 -359 -366 -367 -503 -5 -95 10 -166 49 -219 16 -22 170 -164 344
-316 l315 -276 2 -472 3 -472 188 -3 187 -2 0 586 0 587 -187 194 c-104 106
-197 205 -208 219 l-19 25 219 219 c121 121 224 220 230 220 6 0 49 -39 95
-86 287 -290 557 -421 928 -449 l92 -8 0 190 0 190 -83 6 c-154 12 -311 66
-444 153 -32 21 -166 144 -298 274 -217 214 -247 241 -318 275 -70 35 -85 38
-175 41 -64 3 -111 -1 -139 -10z"/>
<path d="M772 1869 c-329 -58 -611 -299 -719 -614 -218 -639 261 -1283 932
-1252 143 7 247 32 364 87 255 122 430 336 508 622 26 92 25 366 -1 463 -91
339 -334 584 -671 677 -81 23 -326 33 -413 17z m303 -284 c359 -76 595 -449
505 -799 -31 -123 -81 -209 -180 -307 -70 -70 -103 -95 -171 -127 -263 -127
-548 -76 -755 133 -217 219 -251 558 -82 812 155 230 422 343 683 288z"/>
<path d="M3417 1870 c-125 -22 -274 -83 -377 -153 -66 -45 -176 -153 -226
-223 -57 -80 -119 -210 -146 -309 -32 -119 -32 -365 0 -484 91 -334 341 -584
672 -673 123 -32 358 -32 480 1 273 73 484 246 606 496 72 149 88 222 88 415
0 139 -4 178 -22 245 -46 166 -136 319 -258 436 -117 111 -233 178 -390 225
-74 22 -113 27 -234 30 -80 1 -167 -1 -193 -6z m298 -285 c186 -39 370 -184
454 -357 69 -143 86 -267 55 -416 -45 -225 -225 -425 -448 -499 -69 -23 -98
-27 -196 -27 -98 0 -127 5 -196 27 -316 104 -513 432 -450 747 28 137 82 237
185 340 69 70 102 95 171 129 139 68 279 87 425 56z"/>
</g>
</svg>
