<svg class="MuiSvgIcon-root MuiSvgIcon-fontSizeMedium MuiBox-root css-1om0hkc" focusable="false" aria-hidden="true" viewBox="0 0 24 24">
<g data-bx-workspace="master" xmlns="http://www.w3.org/2000/svg" xmlns:bx="https://boxy-svg.com" class="MuiSvgIcon-root MuiSvgIcon-fontSizeMedium MuiBox-root css-1om0hkc" focusable="false" aria-hidden="true" viewBox="0 0 24 24" data-testid="RoundaboutLeftIcon"><defs></defs><path d="M 17.483 14.551 C 17.682 13.377 18.698 12.484 19.93 12.484 C 21.298 12.484 22.41 13.595 22.41 14.963 C 22.41 16.191 21.517 17.212 20.344 17.411 L 20.344 19.924 L 19.516 19.924 L 19.516 17.406 C 19.516 17.002 19.81 16.663 20.207 16.592 C 20.988 16.464 21.583 15.782 21.583 14.963 C 21.583 14.051 20.844 13.311 19.93 13.311 C 19.112 13.311 18.43 13.905 18.302 14.687 C 18.231 15.083 17.892 15.377 17.487 15.377 L 15.727 15.377 L 16.383 16.034 L 15.797 16.617 L 14.143 14.963 L 15.797 13.311 L 16.379 13.893 L 15.727 14.551 L 17.483 14.551 Z" style="" transform="matrix(0, 1, -1, 0, 34.4805, -2.0725)"></path><path d="M 10.014 13.344 C 10.724 13.344 11.306 12.763 11.306 12.052 C 11.306 11.342 10.724 10.76 10.014 10.76 C 9.303 10.76 8.722 11.342 8.722 12.052 C 8.722 12.763 9.303 13.344 10.014 13.344 Z M 3.23 17.544 C 1.421 17.544 0 18.965 0 20.774 C 0 22.583 1.421 24.004 3.23 24.004 C 5.039 24.004 6.46 22.583 6.46 20.774 C 6.46 18.965 5.039 17.544 3.23 17.544 Z M 3.23 23.035 C 2.003 23.035 0.969 22.001 0.969 20.774 C 0.969 19.546 2.003 18.513 3.23 18.513 C 4.458 18.513 5.491 19.546 5.491 20.774 C 5.491 22.001 4.458 23.035 3.23 23.035 Z M 6.977 16.575 L 8.528 15.024 L 9.045 15.541 C 9.884 16.381 10.983 16.898 12.339 16.898 L 12.339 15.605 C 11.37 15.605 10.595 15.218 10.014 14.636 L 8.786 13.409 C 8.463 13.151 8.14 13.021 7.752 13.021 C 7.365 13.021 7.042 13.151 6.848 13.409 L 5.039 15.218 C 4.781 15.476 4.651 15.799 4.651 16.122 C 4.651 16.51 4.781 16.833 5.039 17.027 L 7.106 18.836 L 7.106 22.066 L 8.399 22.066 L 8.399 18.06 L 6.977 16.575 Z M 12.275 17.544 C 10.466 17.544 9.045 18.965 9.045 20.774 C 9.045 22.583 10.466 24.004 12.275 24.004 C 14.084 24.004 15.505 22.583 15.505 20.774 C 15.505 18.965 14.084 17.544 12.275 17.544 Z M 12.275 23.035 C 11.047 23.035 10.014 22.001 10.014 20.774 C 10.014 19.546 11.047 18.513 12.275 18.513 C 13.502 18.513 14.536 19.546 14.536 20.774 C 14.536 22.001 13.502 23.035 12.275 23.035 Z" style=""></path><text style="font-family: Arial, sans-serif; font-size: 16.2px; white-space: pre;" x="15.345" y="11.686">?</text></g></svg>
